<?xml version="1.0" encoding="UTF-8" standalone="no"?>
<svg
   width="366"
   height="512"
   viewBox="0 0 96.8 135"
   version="1.1"
   id="svg2"
   sodipodi:docname="wrub.svg"
   inkscape:version="1.3.2 (091e20ef0f, 2023-11-25, custom)"
   xmlns:inkscape="http://www.inkscape.org/namespaces/inkscape"
   xmlns:sodipodi="http://sodipodi.sourceforge.net/DTD/sodipodi-0.dtd"
   xmlns:xlink="http://www.w3.org/1999/xlink"
   xmlns="http://www.w3.org/2000/svg"
   xmlns:svg="http://www.w3.org/2000/svg">
  <defs
     id="defs2">
    <linearGradient
       id="linearGradient9"
       inkscape:collect="always">
      <stop
         style="stop-color:#0ca7c3;stop-opacity:1;"
         offset="0"
         id="stop10" />
      <stop
         style="stop-color:#3b46d3;stop-opacity:1;"
         offset="1"
         id="stop11" />
    </linearGradient>
    <linearGradient
       id="linearGradient1">
      <stop
         style="stop-color:#0ca7c3;stop-opacity:1;"
         offset="0"
         id="stop4" />
      <stop
         style="stop-color:#4b23db;stop-opacity:1;"
         offset="1"
         id="stop5" />
    </linearGradient>
    <linearGradient
       id="linearGradient1-1">
      <stop
         style="stop-color:#0ca7c3;stop-opacity:1;"
         offset="0"
         id="stop1" />
      <stop
         style="stop-color:#4b23db;stop-opacity:1;"
         offset="1"
         id="stop2" />
    </linearGradient>
    <clipPath
       clipPathUnits="userSpaceOnUse"
       id="clipPath75">
      <path
         id="path75"
         style="stroke-width:0.0999999;stroke-linecap:square;paint-order:markers fill stroke;stop-color:#000000"
         d="m 1691.1994,-792.32001 h 1634.8919 v 92.82806 H 1691.1994 Z" />
    </clipPath>
    <clipPath
       clipPathUnits="userSpaceOnUse"
       id="clipPath74">
      <path
         id="path74"
         style="stroke-width:0.1;stroke-linecap:square;paint-order:markers fill stroke;stop-color:#000000"
         d="m 438.25066,553.76374 859.87054,0 v 201.39554 l -859.87054,0 z"
         sodipodi:nodetypes="ccccc" />
    </clipPath>
    <clipPath
       clipPathUnits="userSpaceOnUse"
       id="clipPath54">
      <path
         id="path54"
         style="stroke-width:0.0999999;stroke-linecap:square;paint-order:markers fill stroke;stop-color:#000000"
         d="m 1691.1994,-792.32001 h 1634.8919 v 92.82806 H 1691.1994 Z" />
    </clipPath>
    <clipPath
       clipPathUnits="userSpaceOnUse"
       id="clipPath5">
      <path
         id="path5"
         style="stroke-width:0.1;stroke-linecap:square;paint-order:markers fill stroke;stop-color:#000000"
         d="m 438.25066,553.76374 859.87054,0 v 201.39554 l -859.87054,0 z"
         sodipodi:nodetypes="ccccc" />
    </clipPath>
    <clipPath
       clipPathUnits="userSpaceOnUse"
       id="clipPath52">
      <rect
         style="fill:#000000;stroke:none;stroke-width:0.999995;stroke-linecap:butt;stroke-linejoin:bevel;paint-order:stroke markers fill;stop-color:#000000"
         id="rect52"
         width="46.19186"
         height="80.006783"
         x="74.999985"
         y="399.99661" />
    </clipPath>
    <clipPath
       clipPathUnits="userSpaceOnUse"
       id="clipPath33">
      <rect
         style="fill:#000000;stroke:none;stroke-width:0.999995;stroke-linecap:butt;stroke-linejoin:bevel;paint-order:stroke markers fill;stop-color:#000000"
         id="rect33"
         width="46.19186"
         height="80.006783"
         x="74.999985"
         y="399.99661" />
    </clipPath>
    <linearGradient
       id="swatch46"
       inkscape:swatch="solid">
      <stop
         style="stop-color:#ffffff;stop-opacity:1;"
         offset="0"
         id="stop46" />
    </linearGradient>
    <linearGradient
       inkscape:collect="always"
       xlink:href="#linearGradient9"
       id="linearGradient11"
       x1="0"
       y1="-67.5"
       x2="96.800003"
       y2="-67.5"
       gradientUnits="userSpaceOnUse" />
  </defs>
  <sodipodi:namedview
     id="namedview2"
     pagecolor="#ffffff"
     bordercolor="#000000"
     borderopacity="0.25"
     inkscape:showpageshadow="2"
     inkscape:pageopacity="0.0"
     inkscape:pagecheckerboard="0"
     inkscape:deskcolor="#d1d1d1"
     inkscape:zoom="1.731923"
     inkscape:cx="103.35332"
     inkscape:cy="261.27028"
     inkscape:window-width="1620"
     inkscape:window-height="1205"
     inkscape:window-x="1708"
     inkscape:window-y="85"
     inkscape:window-maximized="0"
     inkscape:current-layer="svg2"
     showguides="true" />
  <rect
     transform="scale(0.99999999,-0.99999999)"
     y="-135"
     width="96.8"
     height="135"
     ry="5.29"
     fill="#eee"
     id="rect76"
     style="fill:url(#linearGradient11);fill-opacity:1;opacity:1;fill-rule:nonzero" />
  <path
     id="path1"
     style="display:none;fill:#ffffff;fill-opacity:1"
     d="m 12.601067,21.13578 c -2.259994,-0.086 -4.1201158,1.720316 -4.1201158,3.970312 a 3.95,3.95 0 0 0 0.9370474,2.560092 3.71,3.71 0 0 0 -2.5198002,0.243819 c -1.3899972,0.647998 -2.360328,2.020164 -2.3803278,3.56016 -0.028,2.219996 1.7603169,4.019903 3.9703125,4.019903 a 3.96,3.96 0 0 0 2.7496709,-1.110097 v 1.170018 c 0,0.561 -0.145617,1.1098 -0.424615,1.5998 l -0.535161,0.937047 c -0.116,0.204 0.031,0.457159 0.264997,0.457159 h 3.829808 c 0.233998,0 0.380997,-0.253159 0.264997,-0.457159 l -0.534644,-0.937047 a 3.23,3.23 0 0 1 -0.425132,-1.5998 v -1.170018 a 3.95,3.95 0 0 0 2.749671,1.110097 c 2.209996,0 4.000312,-1.809907 3.970312,-4.019903 -0.02,-1.539996 -0.990331,-2.910162 -2.380327,-3.56016 l -0.01756,-0.0098 c -0.905998,-0.421 -1.750318,-0.431335 -2.520316,-0.244335 a 3.95,3.95 0 0 0 0.931365,-2.769817 4.01,4.01 0 0 0 -3.810178,-3.750256 z m 69.82605,76.220082 c -0.233998,0 -0.380997,0.253159 -0.264997,0.457159 l 0.534644,0.937047 a 3.23,3.23 0 0 1 0.425132,1.599802 v 1.17002 a 3.95,3.95 0 0 0 -2.749671,-1.1101 c -2.209996,0 -4.000312,1.81042 -3.970312,4.02042 0.02,1.54 0.990331,2.90964 2.380327,3.55964 l 0.01756,0.0103 c 0.905998,0.421 1.750318,0.43082 2.520316,0.24382 a 3.95,3.95 0 0 0 -0.931365,2.76982 4.01,4.01 0 0 0 3.810178,3.75026 c 2.259994,0.086 4.120116,-1.72032 4.120116,-3.97032 a 3.95,3.95 0 0 0 -0.937048,-2.55957 3.71,3.71 0 0 0 2.519801,-0.24434 c 1.389996,-0.648 2.360327,-2.01964 2.380327,-3.55964 0.028,-2.22 -1.760316,-4.02042 -3.970312,-4.02042 a 3.96,3.96 0 0 0 -2.749671,1.1101 v -1.17002 c 0,-0.561004 0.145617,-1.109802 0.424615,-1.599802 l 0.535161,-0.937047 c 0.116,-0.204 -0.031,-0.457159 -0.264997,-0.457159 z" />
  <path
     id="path1-6"
     style="display:none;fill:#ffffff;fill-opacity:1"
     d="m 33.02395,20.951366 a 0.86,0.86 0 0 0 -0.580102,0.225222 l -5.919826,6.189989 c -1.38997,1.289985 -1.980322,3.429771 -0.821337,5.589741 0.736,1.369985 2.140365,2.300182 3.690335,2.360182 1.009985,0.039 1.409635,-0.30018 1.99962,-0.847165 0.154,-0.144 0.407053,-0.03585 0.407053,0.176148 v 1.039844 c 0,0.558985 -0.1461,1.110316 -0.4241,1.600316 l -0.53671,0.938597 c -0.116,0.204 0.031,0.457159 0.264998,0.457159 h 3.829807 c 0.234985,0 0.381997,-0.253159 0.264997,-0.457159 l -0.53671,-0.938597 a 3.23,3.23 0 0 1 -0.424099,-1.600316 v -1.050175 c 0,-0.207 0.248754,-0.31085 0.397754,-0.16685 l 0.0083,-0.01085 c 0.57,0.550985 0.911899,0.890715 1.929884,0.848715 1.499985,-0.062 2.900018,-0.880585 3.680003,-2.16957 1.339985,-2.21997 0.608198,-4.450037 -0.819787,-5.770022 L 33.604051,21.176588 A 0.86,0.86 0 0 0 33.02395,20.951366 Z" />
  <path
     id="path3"
     style="display:none;fill:#ffffff;fill-opacity:1"
     d="m 62.220675,96.533491 c -0.234989,0 -0.381997,0.252643 -0.264997,0.456643 l 0.537227,0.939114 a 3.23,3.23 0 0 1 0.424099,1.600316 v 1.049656 c 0,0.207 -0.249271,0.31137 -0.398271,0.16737 l -0.0077,0.0109 c -0.569989,-0.551 -0.911894,-0.891235 -1.929883,-0.849235 -1.499987,0.062 -2.900015,0.881085 -3.680004,2.170085 -1.339978,2.22 -0.608201,4.45013 0.819788,5.77002 l 5.829943,6.18999 a 0.86,0.86 0 0 0 1.160203,0 l 5.919826,-6.18999 c 1.389989,-1.29 1.97981,-3.42974 0.820821,-5.58974 -0.735989,-1.37 -2.13984,-2.30019 -3.689818,-2.360179 -1.009989,-0.039 -1.410148,0.300169 -2.000137,0.847169 -0.154,0.144 -0.407053,0.0358 -0.407053,-0.17615 v -1.039846 c 0,-0.559 0.1461,-1.110327 0.4241,-1.600316 l 0.537226,-0.939114 c 0.116,-0.204 -0.031,-0.456643 -0.264997,-0.456643 z" />
  <path
     id="path1-7"
     style="display:none;fill:#ffffff;fill-opacity:1"
     d="m 50.258598,21.03195 c -1.359997,0 -2.460883,0.726685 -3.37988,1.689682 -1.236994,1.289994 -1.747191,4.259933 0.492803,6.499927 l 6.389899,6.600141 6.389899,-6.600141 c 2.242994,-2.239994 1.703316,-5.209933 0.493319,-6.499927 -0.909997,-0.971997 -2.020402,-1.689682 -3.380396,-1.689682 -1.608344,0 -2.910001,1.177747 -3.517802,2.725393 -0.610727,-1.547646 -1.8795,-2.725393 -3.487842,-2.725393 z" />
  <path
     id="path36"
     style="display:none;fill:#ffffff;fill-opacity:1"
     d="m 46.751674,113.93993 c 1.36,0 2.46089,-0.72669 3.379884,-1.68969 1.236994,-1.28999 1.747191,-4.25993 -0.492804,-6.49992 l -6.3899,-6.600145 -6.3899,6.600145 c -2.24299,2.23999 -1.70331,5.20993 -0.49332,6.49992 0.91,0.972 2.02041,1.68969 3.3804,1.68969 1.60834,0 2.91,-1.17775 3.5178,-2.7254 0.61073,1.54765 1.8795,2.7254 3.48784,2.7254 z" />
</svg>
