<?xml version="1.0" encoding="UTF-8" standalone="no"?>
<svg
   width="366"
   height="512"
   viewBox="0 0 96.8 135"
   version="1.1"
   id="svg2"
   sodipodi:docname="wrub.svg"
   inkscape:version="1.3.2 (091e20ef0f, 2023-11-25, custom)"
   xml:space="preserve"
   xmlns:inkscape="http://www.inkscape.org/namespaces/inkscape"
   xmlns:sodipodi="http://sodipodi.sourceforge.net/DTD/sodipodi-0.dtd"
   xmlns="http://www.w3.org/2000/svg"
   xmlns:svg="http://www.w3.org/2000/svg"><defs
     id="defs2"><linearGradient
       id="linearGradient1"><stop
         style="stop-color:#0ca7c3;stop-opacity:1;"
         offset="0"
         id="stop4" /><stop
         style="stop-color:#4b23db;stop-opacity:1;"
         offset="1"
         id="stop5" /></linearGradient><linearGradient
       id="linearGradient1-1"><stop
         style="stop-color:#0ca7c3;stop-opacity:1;"
         offset="0"
         id="stop1" /><stop
         style="stop-color:#4b23db;stop-opacity:1;"
         offset="1"
         id="stop2" /></linearGradient><clipPath
       clipPathUnits="userSpaceOnUse"
       id="clipPath75"><path
         id="path75"
         style="stroke-width:0.0999999;stroke-linecap:square;paint-order:markers fill stroke;stop-color:#000000"
         d="m 1691.1994,-792.32001 h 1634.8919 v 92.82806 H 1691.1994 Z" /></clipPath><clipPath
       clipPathUnits="userSpaceOnUse"
       id="clipPath74"><path
         id="path74"
         style="stroke-width:0.1;stroke-linecap:square;paint-order:markers fill stroke;stop-color:#000000"
         d="m 438.25066,553.76374 859.87054,0 v 201.39554 l -859.87054,0 z"
         sodipodi:nodetypes="ccccc" /></clipPath><clipPath
       clipPathUnits="userSpaceOnUse"
       id="clipPath54"><path
         id="path54"
         style="stroke-width:0.0999999;stroke-linecap:square;paint-order:markers fill stroke;stop-color:#000000"
         d="m 1691.1994,-792.32001 h 1634.8919 v 92.82806 H 1691.1994 Z" /></clipPath><clipPath
       clipPathUnits="userSpaceOnUse"
       id="clipPath5"><path
         id="path5"
         style="stroke-width:0.1;stroke-linecap:square;paint-order:markers fill stroke;stop-color:#000000"
         d="m 438.25066,553.76374 859.87054,0 v 201.39554 l -859.87054,0 z"
         sodipodi:nodetypes="ccccc" /></clipPath><clipPath
       clipPathUnits="userSpaceOnUse"
       id="clipPath52"><rect
         style="fill:#000000;stroke:none;stroke-width:0.999995;stroke-linecap:butt;stroke-linejoin:bevel;paint-order:stroke markers fill;stop-color:#000000"
         id="rect52"
         width="46.19186"
         height="80.006783"
         x="74.999985"
         y="399.99661" /></clipPath><clipPath
       clipPathUnits="userSpaceOnUse"
       id="clipPath33"><rect
         style="fill:#000000;stroke:none;stroke-width:0.999995;stroke-linecap:butt;stroke-linejoin:bevel;paint-order:stroke markers fill;stop-color:#000000"
         id="rect33"
         width="46.19186"
         height="80.006783"
         x="74.999985"
         y="399.99661" /></clipPath><linearGradient
       id="swatch46"
       inkscape:swatch="solid"><stop
         style="stop-color:#ffffff;stop-opacity:1;"
         offset="0"
         id="stop46" /></linearGradient></defs><sodipodi:namedview
     id="namedview2"
     pagecolor="#ffffff"
     bordercolor="#000000"
     borderopacity="0.25"
     inkscape:showpageshadow="2"
     inkscape:pageopacity="0.0"
     inkscape:pagecheckerboard="0"
     inkscape:deskcolor="#d1d1d1"
     inkscape:zoom="6.3747422"
     inkscape:cx="328.17013"
     inkscape:cy="60.473033"
     inkscape:window-width="1620"
     inkscape:window-height="1205"
     inkscape:window-x="1708"
     inkscape:window-y="85"
     inkscape:window-maximized="0"
     inkscape:current-layer="svg2"
     showguides="true" /><rect
     transform="scale(1,-1)"
     y="-132.44418"
     width="90.257607"
     height="130.29897"
     ry="5.1057892"
     fill="#eee"
     id="rect76"
     style="opacity:1;fill:#0ca7c3;fill-opacity:1;fill-rule:nonzero;stroke-width:0.948654"
     x="3.2175267"
     inkscape:label="rect76" /><path
     id="path1"
     style="display:none;fill:#ffffff;fill-opacity:1"
     d="m 12.601067,21.13578 c -2.259994,-0.086 -4.1201158,1.720316 -4.1201158,3.970312 a 3.95,3.95 0 0 0 0.9370474,2.560092 3.71,3.71 0 0 0 -2.5198002,0.243819 c -1.3899972,0.647998 -2.360328,2.020164 -2.3803278,3.56016 -0.028,2.219996 1.7603169,4.019903 3.9703125,4.019903 a 3.96,3.96 0 0 0 2.7496709,-1.110097 v 1.170018 c 0,0.561 -0.145617,1.1098 -0.424615,1.5998 l -0.535161,0.937047 c -0.116,0.204 0.031,0.457159 0.264997,0.457159 h 3.829808 c 0.233998,0 0.380997,-0.253159 0.264997,-0.457159 l -0.534644,-0.937047 a 3.23,3.23 0 0 1 -0.425132,-1.5998 v -1.170018 a 3.95,3.95 0 0 0 2.749671,1.110097 c 2.209996,0 4.000312,-1.809907 3.970312,-4.019903 -0.02,-1.539996 -0.990331,-2.910162 -2.380327,-3.56016 l -0.01756,-0.0098 c -0.905998,-0.421 -1.750318,-0.431335 -2.520316,-0.244335 a 3.95,3.95 0 0 0 0.931365,-2.769817 4.01,4.01 0 0 0 -3.810178,-3.750256 z m 69.82605,76.220082 c -0.233998,0 -0.380997,0.253159 -0.264997,0.457159 l 0.534644,0.937047 a 3.23,3.23 0 0 1 0.425132,1.599802 v 1.17002 a 3.95,3.95 0 0 0 -2.749671,-1.1101 c -2.209996,0 -4.000312,1.81042 -3.970312,4.02042 0.02,1.54 0.990331,2.90964 2.380327,3.55964 l 0.01756,0.0103 c 0.905998,0.421 1.750318,0.43082 2.520316,0.24382 a 3.95,3.95 0 0 0 -0.931365,2.76982 4.01,4.01 0 0 0 3.810178,3.75026 c 2.259994,0.086 4.120116,-1.72032 4.120116,-3.97032 a 3.95,3.95 0 0 0 -0.937048,-2.55957 3.71,3.71 0 0 0 2.519801,-0.24434 c 1.389996,-0.648 2.360327,-2.01964 2.380327,-3.55964 0.028,-2.22 -1.760316,-4.02042 -3.970312,-4.02042 a 3.96,3.96 0 0 0 -2.749671,1.1101 v -1.17002 c 0,-0.561004 0.145617,-1.109802 0.424615,-1.599802 l 0.535161,-0.937047 c 0.116,-0.204 -0.031,-0.457159 -0.264997,-0.457159 z" /><path
     id="path1-6"
     style="display:none;fill:#ffffff;fill-opacity:1"
     d="m 33.02395,20.951366 a 0.86,0.86 0 0 0 -0.580102,0.225222 l -5.919826,6.189989 c -1.38997,1.289985 -1.980322,3.429771 -0.821337,5.589741 0.736,1.369985 2.140365,2.300182 3.690335,2.360182 1.009985,0.039 1.409635,-0.30018 1.99962,-0.847165 0.154,-0.144 0.407053,-0.03585 0.407053,0.176148 v 1.039844 c 0,0.558985 -0.1461,1.110316 -0.4241,1.600316 l -0.53671,0.938597 c -0.116,0.204 0.031,0.457159 0.264998,0.457159 h 3.829807 c 0.234985,0 0.381997,-0.253159 0.264997,-0.457159 l -0.53671,-0.938597 a 3.23,3.23 0 0 1 -0.424099,-1.600316 v -1.050175 c 0,-0.207 0.248754,-0.31085 0.397754,-0.16685 l 0.0083,-0.01085 c 0.57,0.550985 0.911899,0.890715 1.929884,0.848715 1.499985,-0.062 2.900018,-0.880585 3.680003,-2.16957 1.339985,-2.21997 0.608198,-4.450037 -0.819787,-5.770022 L 33.604051,21.176588 A 0.86,0.86 0 0 0 33.02395,20.951366 Z" /><path
     id="path3"
     style="display:none;fill:#ffffff;fill-opacity:1"
     d="m 62.220675,96.533491 c -0.234989,0 -0.381997,0.252643 -0.264997,0.456643 l 0.537227,0.939114 a 3.23,3.23 0 0 1 0.424099,1.600316 v 1.049656 c 0,0.207 -0.249271,0.31137 -0.398271,0.16737 l -0.0077,0.0109 c -0.569989,-0.551 -0.911894,-0.891235 -1.929883,-0.849235 -1.499987,0.062 -2.900015,0.881085 -3.680004,2.170085 -1.339978,2.22 -0.608201,4.45013 0.819788,5.77002 l 5.829943,6.18999 a 0.86,0.86 0 0 0 1.160203,0 l 5.919826,-6.18999 c 1.389989,-1.29 1.97981,-3.42974 0.820821,-5.58974 -0.735989,-1.37 -2.13984,-2.30019 -3.689818,-2.360179 -1.009989,-0.039 -1.410148,0.300169 -2.000137,0.847169 -0.154,0.144 -0.407053,0.0358 -0.407053,-0.17615 v -1.039846 c 0,-0.559 0.1461,-1.110327 0.4241,-1.600316 l 0.537226,-0.939114 c 0.116,-0.204 -0.031,-0.456643 -0.264997,-0.456643 z" /><path
     id="path1-7"
     style="display:none;fill:#ffffff;fill-opacity:1"
     d="m 50.258598,21.03195 c -1.359997,0 -2.460883,0.726685 -3.37988,1.689682 -1.236994,1.289994 -1.747191,4.259933 0.492803,6.499927 l 6.389899,6.600141 6.389899,-6.600141 c 2.242994,-2.239994 1.703316,-5.209933 0.493319,-6.499927 -0.909997,-0.971997 -2.020402,-1.689682 -3.380396,-1.689682 -1.608344,0 -2.910001,1.177747 -3.517802,2.725393 -0.610727,-1.547646 -1.8795,-2.725393 -3.487842,-2.725393 z" /><path
     id="path36"
     style="display:none;fill:#ffffff;fill-opacity:1"
     d="m 46.751674,113.93993 c 1.36,0 2.46089,-0.72669 3.379884,-1.68969 1.236994,-1.28999 1.747191,-4.25993 -0.492804,-6.49992 l -6.3899,-6.600145 -6.3899,6.600145 c -2.24299,2.23999 -1.70331,5.20993 -0.49332,6.49992 0.91,0.972 2.02041,1.68969 3.3804,1.68969 1.60834,0 2.91,-1.17775 3.5178,-2.7254 0.61073,1.54765 1.8795,2.7254 3.48784,2.7254 z" /><path
     fill="#000000"
     d="m 9.1250574,0.6524536 c -4.5966546,0 -8.32334909,5.2394398 -8.32334909,11.7026414 V 122.69428 c 0,6.46321 3.72669449,11.70265 8.32334909,11.70265 H 87.597704 c 4.59666,0 8.322783,-5.23944 8.322783,-11.70265 V 12.355095 c 0,-6.4632016 -3.726123,-11.7026414 -8.322783,-11.7026414 z m 7.5163846,3.3287177 3.136076,9.9870637 9.876282,0.09484 -7.937967,6.26684 2.967332,10.046033 L 16.641442,24.262 8.5988621,30.375638 11.566194,20.329913 3.6282269,14.063377 13.504792,13.968537 Z M 78.83111,38.903371 c 2.031522,2.875203 3.631205,6.288728 4.797902,9.739031 1.083173,3.205002 1.766425,6.447395 1.900687,9.428984 -0.0465,5.779886 -1.115956,7.074474 -4.149418,11.226636 L 79.469613,65.808503 C 76.37686,61.824744 70.696179,51.096613 65.963268,52.533756 c -1.858784,1.857226 -2.564276,4.064011 -2.93968,6.323075 0.826062,2.674889 1.276154,5.602067 1.276154,8.667858 0,4.648531 -1.030446,8.979117 -2.849322,12.589006 6.454301,1.379085 16.511873,5.876238 16.524982,11.922398 -0.07696,1.149899 -0.523062,2.334453 -1.243369,3.167317 -3.062251,3.808072 -10.534741,1.253853 -12.884094,3.061539 0.226899,2.111651 1.172111,4.291361 1.241376,6.132191 0.03878,1.32528 -0.503955,3.21593 -1.85508,4.25428 -1.616208,1.2423 -3.696477,1.38335 -5.279052,0.92555 -3.079069,-0.64437 -5.342337,-4.46734 -9.903075,-5.27255 -3.860667,1.06114 -6.388456,4.21599 -9.903076,5.27255 -1.582577,0.4578 -3.662844,0.31675 -5.279057,-0.92555 -1.351118,-1.03866 -1.893846,-2.929 -1.855079,-4.25428 -0.01655,-2.17093 1.170686,-4.19291 1.241661,-6.132191 -4.486912,-2.367282 -9.639123,0.598805 -12.884373,-3.061539 -0.720314,-0.832864 -1.166695,-2.017418 -1.243372,-3.167317 1.751894,-8.310692 10.083225,-10.542709 16.524983,-11.922398 -1.81888,-3.609889 -2.849322,-7.940475 -2.849322,-12.589006 0,-3.492253 0.583489,-6.80425 1.643007,-9.767907 -0.671855,-2.408311 -0.980844,-4.859786 -2.690267,-6.821271 -2.496435,-0.281168 -4.013165,2.096444 -5.085793,3.839075 -3.330196,5.927311 -5.335496,9.303145 -9.372318,14.040734 -4.732908,-7.112771 -5.505384,-14.982418 -3.750356,-21.577845 1.728807,-6.179906 5.464336,-11.79322 10.810664,-14.567204 6.04754,-2.968518 11.365362,-3.048766 16.784946,0.0617 1.471693,-3.967652 2.96448,-7.796696 5.140807,-11.00626 2.743567,-4.045771 6.784099,-7.790919 12.458517,-7.688787 11.059791,0.199401 21.091419,15.54962 21.08743,24.866441 z M 58.245077,19.482156 C 48.052108,20.214405 45.483273,33.08336 42.513661,41.151798 l -2.692832,-2.154196 c -5.252833,-3.741807 -8.858096,-4.174044 -14.216681,-1.407357 -3.683937,1.91133 -6.755879,6.267752 -8.138922,11.210825 -0.963458,3.443618 -1.073202,7.059581 -0.27051,10.226892 2.693686,-4.118416 4.505439,-9.143257 8.071653,-11.908729 2.133857,-2.424118 7.488164,-2.583091 10.104887,1.18455 1.379053,2.133833 2.119889,4.419649 2.70794,6.758355 h 20.570359 c 0.168746,-0.590909 0.304145,-1.143516 0.57494,-1.833823 0.842596,-2.147204 2.213379,-4.94429 5.243426,-5.928527 5.156481,-1.17391 9.262291,2.159975 12.398935,5.627602 1.287556,1.433803 2.420612,2.947244 3.448491,4.412656 C 80.118667,55.273695 79.60929,52.88666 78.801749,50.498411 75.059946,39.340776 68.001632,34.986786 58.738487,40.768194 59.467064,35.776185 63.547215,29.910578 71.921875,32.5727 69.329666,27.364264 63.269296,19.663014 58.24536,19.482156 Z M 37.974012,60.5335 c -0.658456,2.117115 -1.038422,4.48439 -1.038422,6.991189 0,4.817839 1.394446,9.128666 3.494666,12.114512 2.099935,2.986451 4.76797,4.603541 7.621852,4.603541 2.853879,0 5.521918,-1.61709 7.622134,-4.603541 2.100222,-2.985846 3.494666,-7.296673 3.494666,-12.114512 0,-2.506799 -0.380247,-4.874074 -1.038423,-6.991189 z m 3.236985,14.286343 h 13.682216 c 0,0 -2.280367,4.255505 -6.841105,4.255505 -4.560739,0 -6.841111,-4.255505 -6.841111,-4.255505 z m -3.175413,10.202873 c -3.950741,1.015247 -14.357493,2.705292 -14.777366,6.510926 2.742429,0.591822 5.828054,0.254723 8.26577,0.679365 1.708282,0.309437 3.654292,1.010077 4.927022,2.892833 0.962032,1.423468 1.019612,3.070952 0.865686,4.319345 -0.154779,1.790335 -0.945497,3.208945 -1.133058,4.960695 4.547913,-0.78727 8.056546,-5.329106 11.86847,-5.552827 4.560738,-0.213376 8.35556,5.289607 11.86847,5.552827 -0.254551,-1.69917 -0.929825,-3.39164 -1.133063,-4.960695 -0.15392,-1.248393 -0.09635,-2.895877 0.86569,-4.319345 1.272726,-1.882756 3.218738,-2.583706 4.927023,-2.892833 2.776917,-0.677538 5.693793,0.120371 8.265769,-0.679365 -1.644717,-3.989534 -11.348549,-5.913324 -14.777079,-6.510926 -2.7011,2.870645 -6.182939,4.691398 -10.01681,4.691398 -3.834442,0 -7.315712,-1.821054 -10.016524,-4.691398 z m 33.385177,19.651014 8.042009,6.11366 8.04258,-6.11366 -2.967332,10.04573 7.937969,6.26685 -9.876567,0.0949 -3.13665,9.98708 -3.136078,-9.98708 -9.876276,-0.0949 7.937962,-6.26685 z"
     id="path1-3"
     style="fill:#ffffff;fill-opacity:1;stroke:#000000;stroke-width:1.5736;stroke-dasharray:none;stroke-opacity:1" /></svg>
